<mxfile host="app.diagrams.net" modified="2024-04-29T11:40:48.620Z" agent="Mozilla/5.0 (Windows NT 10.0; Win64; x64) AppleWebKit/537.36 (KHTML, like Gecko) Chrome/124.0.0.0 Safari/537.36 Edg/124.0.0.0" etag="UM5gWD8WoYWKtrDMt9Te" version="24.3.1" type="github">
  <diagram name="Page-1" id="cig5RmOTRueLndpw6SvV">
    <mxGraphModel dx="1688" dy="926" grid="1" gridSize="10" guides="1" tooltips="1" connect="1" arrows="1" fold="1" page="1" pageScale="1" pageWidth="850" pageHeight="1100" math="0" shadow="0">
      <root>
        <mxCell id="0" />
        <mxCell id="1" parent="0" />
        <mxCell id="4d23WtHNsiJsMZ63MHoN-3" value="Function" style="rounded=0;whiteSpace=wrap;html=1;rotation=-90;" vertex="1" parent="1">
          <mxGeometry x="30" y="110" width="160" height="30" as="geometry" />
        </mxCell>
        <mxCell id="4d23WtHNsiJsMZ63MHoN-4" value="Rol" style="rounded=0;whiteSpace=wrap;html=1;" vertex="1" parent="1">
          <mxGeometry x="135" y="50" width="290" height="30" as="geometry" />
        </mxCell>
        <mxCell id="4d23WtHNsiJsMZ63MHoN-6" value="Rol" style="rounded=0;whiteSpace=wrap;html=1;" vertex="1" parent="1">
          <mxGeometry x="135" y="90" width="290" height="30" as="geometry" />
        </mxCell>
        <mxCell id="4d23WtHNsiJsMZ63MHoN-7" value="Rol" style="rounded=0;whiteSpace=wrap;html=1;fillColor=#f8cecc;strokeColor=#b85450;" vertex="1" parent="1">
          <mxGeometry x="135" y="130" width="290" height="30" as="geometry" />
        </mxCell>
        <mxCell id="4d23WtHNsiJsMZ63MHoN-8" value="Rol" style="rounded=0;whiteSpace=wrap;html=1;fillColor=#f8cecc;strokeColor=#b85450;" vertex="1" parent="1">
          <mxGeometry x="135" y="170" width="290" height="30" as="geometry" />
        </mxCell>
        <mxCell id="4d23WtHNsiJsMZ63MHoN-11" value="" style="endArrow=classic;html=1;rounded=0;exitX=0.855;exitY=0.145;exitDx=0;exitDy=0;exitPerimeter=0;entryX=0.25;entryY=1;entryDx=0;entryDy=0;" edge="1" parent="1" source="4d23WtHNsiJsMZ63MHoN-20" target="4d23WtHNsiJsMZ63MHoN-8">
          <mxGeometry width="50" height="50" relative="1" as="geometry">
            <mxPoint x="250" y="270" as="sourcePoint" />
            <mxPoint x="320" y="210" as="targetPoint" />
          </mxGeometry>
        </mxCell>
        <mxCell id="4d23WtHNsiJsMZ63MHoN-12" value="Bepaalde rollen binnen mijn functie&lt;div&gt;&amp;nbsp;geven mij geen energie meer&lt;/div&gt;" style="edgeLabel;html=1;align=center;verticalAlign=middle;resizable=0;points=[];" vertex="1" connectable="0" parent="4d23WtHNsiJsMZ63MHoN-11">
          <mxGeometry x="0.08" y="1" relative="1" as="geometry">
            <mxPoint as="offset" />
          </mxGeometry>
        </mxCell>
        <mxCell id="4d23WtHNsiJsMZ63MHoN-13" value="" style="endArrow=classic;html=1;rounded=0;exitX=0.855;exitY=0.855;exitDx=0;exitDy=0;exitPerimeter=0;entryX=0;entryY=0.5;entryDx=0;entryDy=0;" edge="1" parent="1" source="4d23WtHNsiJsMZ63MHoN-20" target="4d23WtHNsiJsMZ63MHoN-17">
          <mxGeometry width="50" height="50" relative="1" as="geometry">
            <mxPoint x="250" y="310" as="sourcePoint" />
            <mxPoint x="300" y="370" as="targetPoint" />
          </mxGeometry>
        </mxCell>
        <mxCell id="4d23WtHNsiJsMZ63MHoN-14" value="180 rotatie" style="edgeLabel;html=1;align=center;verticalAlign=middle;resizable=0;points=[];" vertex="1" connectable="0" parent="4d23WtHNsiJsMZ63MHoN-13">
          <mxGeometry x="-0.387" y="-1" relative="1" as="geometry">
            <mxPoint x="12" as="offset" />
          </mxGeometry>
        </mxCell>
        <mxCell id="4d23WtHNsiJsMZ63MHoN-15" value="Rol" style="rounded=0;whiteSpace=wrap;html=1;" vertex="1" parent="1">
          <mxGeometry x="490" y="130" width="290" height="30" as="geometry" />
        </mxCell>
        <mxCell id="4d23WtHNsiJsMZ63MHoN-16" value="Rol" style="rounded=0;whiteSpace=wrap;html=1;" vertex="1" parent="1">
          <mxGeometry x="490" y="170" width="290" height="30" as="geometry" />
        </mxCell>
        <mxCell id="4d23WtHNsiJsMZ63MHoN-17" value="Maak jezelf zo vervangbaar mogelijk" style="shape=process;whiteSpace=wrap;html=1;backgroundOutline=1;" vertex="1" parent="1">
          <mxGeometry x="215" y="470" width="130" height="50" as="geometry" />
        </mxCell>
        <mxCell id="4d23WtHNsiJsMZ63MHoN-18" value="" style="endArrow=classic;html=1;rounded=0;exitX=1;exitY=0.75;exitDx=0;exitDy=0;entryX=0;entryY=0;entryDx=0;entryDy=0;" edge="1" parent="1" source="4d23WtHNsiJsMZ63MHoN-17" target="4d23WtHNsiJsMZ63MHoN-19">
          <mxGeometry width="50" height="50" relative="1" as="geometry">
            <mxPoint x="380" y="460" as="sourcePoint" />
            <mxPoint x="420" y="510" as="targetPoint" />
          </mxGeometry>
        </mxCell>
        <mxCell id="4d23WtHNsiJsMZ63MHoN-19" value="Team vertrouwen hoog dat ze zonder deze persoon kunnen functioneren?" style="rhombus;whiteSpace=wrap;html=1;" vertex="1" parent="1">
          <mxGeometry x="410" y="550" width="110" height="150" as="geometry" />
        </mxCell>
        <mxCell id="4d23WtHNsiJsMZ63MHoN-20" value="Ik doe mijn functie niet meer graag" style="strokeWidth=2;html=1;shape=mxgraph.flowchart.start_2;whiteSpace=wrap;" vertex="1" parent="1">
          <mxGeometry x="20" y="310" width="100" height="100" as="geometry" />
        </mxCell>
        <mxCell id="4d23WtHNsiJsMZ63MHoN-21" value="" style="endArrow=classic;startArrow=classic;html=1;rounded=0;exitX=1;exitY=0.5;exitDx=0;exitDy=0;entryX=0;entryY=0.5;entryDx=0;entryDy=0;" edge="1" parent="1" source="4d23WtHNsiJsMZ63MHoN-7" target="4d23WtHNsiJsMZ63MHoN-15">
          <mxGeometry width="50" height="50" relative="1" as="geometry">
            <mxPoint x="470" y="180" as="sourcePoint" />
            <mxPoint x="520" y="130" as="targetPoint" />
          </mxGeometry>
        </mxCell>
        <mxCell id="4d23WtHNsiJsMZ63MHoN-22" value="" style="endArrow=classic;startArrow=classic;html=1;rounded=0;exitX=1;exitY=0.5;exitDx=0;exitDy=0;entryX=0;entryY=0.5;entryDx=0;entryDy=0;" edge="1" parent="1" source="4d23WtHNsiJsMZ63MHoN-8" target="4d23WtHNsiJsMZ63MHoN-16">
          <mxGeometry width="50" height="50" relative="1" as="geometry">
            <mxPoint x="435" y="155" as="sourcePoint" />
            <mxPoint x="500" y="155" as="targetPoint" />
          </mxGeometry>
        </mxCell>
        <mxCell id="4d23WtHNsiJsMZ63MHoN-23" value="" style="endArrow=classic;html=1;rounded=0;" edge="1" parent="1">
          <mxGeometry width="50" height="50" relative="1" as="geometry">
            <mxPoint x="460" y="70" as="sourcePoint" />
            <mxPoint x="790" y="70" as="targetPoint" />
          </mxGeometry>
        </mxCell>
        <mxCell id="4d23WtHNsiJsMZ63MHoN-25" value="overgang naar nieuwe functie" style="edgeLabel;html=1;align=center;verticalAlign=middle;resizable=0;points=[];" vertex="1" connectable="0" parent="4d23WtHNsiJsMZ63MHoN-23">
          <mxGeometry x="-0.3717" y="-1" relative="1" as="geometry">
            <mxPoint as="offset" />
          </mxGeometry>
        </mxCell>
        <mxCell id="4d23WtHNsiJsMZ63MHoN-24" value="Function" style="rounded=0;whiteSpace=wrap;html=1;rotation=-90;" vertex="1" parent="1">
          <mxGeometry x="730" y="110" width="160" height="30" as="geometry" />
        </mxCell>
        <mxCell id="4d23WtHNsiJsMZ63MHoN-27" value="" style="endArrow=classic;html=1;rounded=0;exitX=1;exitY=1;exitDx=0;exitDy=0;" edge="1" parent="1" source="4d23WtHNsiJsMZ63MHoN-19" target="4d23WtHNsiJsMZ63MHoN-28">
          <mxGeometry width="50" height="50" relative="1" as="geometry">
            <mxPoint x="550" y="710" as="sourcePoint" />
            <mxPoint x="580" y="710" as="targetPoint" />
          </mxGeometry>
        </mxCell>
        <mxCell id="4d23WtHNsiJsMZ63MHoN-28" value="GO" style="rounded=0;whiteSpace=wrap;html=1;" vertex="1" parent="1">
          <mxGeometry x="590" y="720" width="120" height="60" as="geometry" />
        </mxCell>
      </root>
    </mxGraphModel>
  </diagram>
</mxfile>
